<svg fill="rgb(41, 192, 61)" xmlns="http://www.w3.org/2000/svg"  viewBox="0 0 50 50" width="60px" height="60px"><path d="M43.967 32.751h-11.82V28.73l-7.966 10.574 7.964 10.573.002-4.011 5.981.055c1.273 0 3.608-.902 4.575-2.838.383-.765 1.976-3.449 3.381-5.818 1.215-2.046 2.361-3.979 2.82-4.82.393-.894.768-1.777.817-1.885C49.721 30.56 48.518 32.751 43.967 32.751zM37.152 31.203l-5.723-9.912 11.352-6.553 6.594 11.419c.557 1.012.734 2.138.552 3.365-.662.647-2.208 1.681-5.335 1.681H37.152zM31.642 1.056c.17 0 .337-.001.493-.002-.144-.006-.287-.02-.434-.013.007-.001.014-.003.014-.003-.082 0-.164.002-.246.005-1.395.026-3.802.008-6.718-.012-1.732-.012-3.646-.025-5.703-.03-2.561.152-4.363 1.062-5.368 2.723l-6.592 11.42L18.439 21.7l9.445-16.367C29.794 1.767 31.3 1.153 31.642 1.056z"/><path d="M39.365 8.792l-2.944-5.208c-.505-.875-1.84-2.038-3.448-2.416-.597.288-1.897 1.214-3.477 4.165l-3.636 6.3 2.146 3.717-3.481 2.011 13.14 1.61 5.174-12.185L39.365 8.792zM9.09 37.887L15 27.65l3.482 2.01-5.175-12.186-13.139 1.61 3.472 2.007-3.038 5.153c-.637 1.103-1.023 3.576.17 5.381.471.714 1.999 3.436 3.348 5.837 1.164 2.075 2.266 4.035 2.764 4.853.578.787 1.155 1.554 1.224 1.65C8.11 43.966 6.814 41.829 9.09 37.887zM13.838 32.76l11.445 0-.001 13.107-13.186.001c-1.155-.024-2.219-.433-3.19-1.205-.23-.897-.352-2.752 1.212-5.461L13.838 32.76z"/></svg>